# xmcd CD database file
#
# Track frame offsets:
#	150
#	15441
#	32797
#	60575
#	79476
#	96081
#	112255
#	129981
#	151755
#	167623
#	183636
#	201563
#
# Disc length: 2899 seconds
#
# Revision: 0
# Processed by: cddbd v1.5.2PL0 Copyright (c) Steve Scherf et al.
# Submitted via: CDex 1.51
#
DISCID=9e0b510c
DTITLE=Jimmy Cornett and the Deadmen - The Ride
DYEAR=2014
DGENRE=Blues
TTITLE0=devils got my soul 
TTITLE1=for the ride
TTITLE2=guardian light
TTITLE3=killian
TTITLE4=lecker
TTITLE5=another wednesday morning
TTITLE6=long way to the bar
TTITLE7=fields of stone
TTITLE8=red light
TTITLE9=rip off your shirt
TTITLE10=raise the dust
TTITLE11=red light (Remix by Bombax)
EXTD=YEAR: 2014
EXTT0=
EXTT1=
EXTT2=
EXTT3=
EXTT4=
EXTT5=
EXTT6=
EXTT7=
EXTT8=
EXTT9=
EXTT10=
EXTT11=
PLAYORDER=
